<svg width="13" height="14" viewBox="0 0 13 14" fill="none" xmlns="http://www.w3.org/2000/svg">
<g clip-path="url(#clip0)">
<path d="M6.5 13.2064C2.91586 13.2064 0 10.2796 0 6.68198C0 3.08439 2.91586 0.157593 6.5 0.157593C10.0841 0.157593 13 3.08439 13 6.68198C13 10.2796 10.0841 13.2064 6.5 13.2064ZM6.5 1.08962C3.42793 1.08962 0.928543 3.59839 0.928543 6.68198C0.928543 9.76558 3.42793 12.2743 6.5 12.2743C9.57207 12.2743 12.0715 9.76558 12.0715 6.68198C12.0715 3.59839 9.57207 1.08962 6.5 1.08962Z" fill="#23C967"/>
<path d="M8.82152 9.47817C8.7027 9.47817 8.58388 9.43267 8.49322 9.34158L3.85041 4.68134C3.669 4.49926 3.669 4.20438 3.85041 4.02239C4.03171 3.84041 4.32559 3.84031 4.5069 4.02239L9.14971 8.68263C9.33111 8.86471 9.33111 9.15959 9.14971 9.34158C9.05906 9.43267 8.94034 9.47817 8.82152 9.47817Z" fill="#23C967"/>
<path d="M4.1786 9.4782C4.05978 9.4782 3.94106 9.43271 3.85041 9.34162C3.669 9.15963 3.669 8.86465 3.85041 8.68267L8.49322 4.02243C8.67463 3.84034 8.96841 3.84034 9.14971 4.02243C9.33102 4.20441 9.33111 4.49939 9.14971 4.68138L4.5069 9.34162C4.41624 9.43271 4.29742 9.4782 4.1786 9.4782Z" fill="#23C967"/>
</g>
<defs>
<clipPath id="clip0">
<rect width="13" height="13.0488" fill="white" transform="translate(0 0.157593)"/>
</clipPath>
</defs>
</svg>
